<?xml version="1.0" encoding="UTF-8" standalone="no"?><!DOCTYPE svg PUBLIC "-//W3C//DTD SVG 1.1//EN" "http://www.w3.org/Graphics/SVG/1.1/DTD/svg11.dtd"><svg width="100%" height="100%" viewBox="0 0 4267 4267" version="1.1" xmlns="http://www.w3.org/2000/svg" xmlns:xlink="http://www.w3.org/1999/xlink" xml:space="preserve" xmlns:serif="http://www.serif.com/" style="fill-rule:evenodd;clip-rule:evenodd;stroke-linejoin:round;stroke-miterlimit:2;"><rect x="0" y="0" width="4266.67" height="4266.67" style="fill:#ebebeb;"/><g><path d="M3324.9,624.517c207.094,97.331 331.64,259.191 382.855,478.632c11.138,47.72 14.589,97.061 14.584,146.363c-0.06,598.506 2.158,1197.03 -0.961,1795.52c-1.631,312.974 -213.328,591.389 -545.471,656.873c-53.109,10.471 -106.85,16.227 -160.879,16.251c-590.176,0.269 -1180.35,0.904 -1770.52,-0.684c-110.852,-0.298 -218.945,-21.751 -319.253,-72.855c-188.671,-96.122 -302.915,-250.768 -355.553,-453.364c-16.129,-62.075 -19.097,-126.096 -19.21,-189.701c-0.838,-472.133 -1.649,-944.271 0.075,-1416.4c0.426,-116.594 1.498,-233.229 2.15,-349.844c1.746,-312.3 223.672,-586.774 528.666,-653.286c64.482,-14.062 129.729,-20.967 195.722,-20.978c543.655,-0.09 1087.31,0.173 1630.97,-0.767c65.929,-0.114 131.853,-1.159 197.333,5.824c75.39,8.039 148.344,27.328 219.501,58.419m198.494,2505.71c3.935,-25.284 8.647,-50.413 8.641,-76.217c-0.161,-606.18 -0.176,-1212.36 -0.238,-1818.54c-0.006,-63.801 -11.788,-125.465 -36.677,-184.135c-79.642,-187.746 -253.755,-302.655 -456.054,-303.271c-574.24,-1.749 -1148.49,-0.645 -1722.74,-0.489c-33.948,0.01 -67.807,0.179 -101.842,3.12c-96.079,8.302 -184.766,37.076 -263.981,91.924c-108.917,75.413 -176.569,178.353 -200.014,309.426c-12.284,68.676 -10.11,138.368 -10.624,207.453c-1.249,167.985 -2.306,336.002 1.201,504.025c2.52,120.745 -0.016,241.564 -1.133,362.362c-2.375,256.896 -1.488,513.831 -0.472,770.744c0.209,53.142 4.42,106.431 16.149,158.799c47.871,213.751 236.474,366.683 455.338,371.032c192.848,3.831 385.864,5.792 578.854,3.261c138.798,-1.82 277.642,-0.448 416.464,-0.042c101.342,0.296 202.681,1.758 304.023,1.932c109.67,0.189 219.361,-1.45 329.002,-1.166c86.064,0.223 172.007,1.677 257.72,-6.648c97.473,-9.468 183.503,-47.942 258.542,-109.654c88.951,-73.151 143.079,-168.127 167.836,-283.919Z"/><path d="M1848.81,2604.17c0.149,-58.325 0.387,-114.565 0.34,-170.806c-0.006,-7.286 3.104,-16.916 -5.219,-20.811c-8.982,-4.202 -13.315,5.086 -17.984,10.57c-76.451,89.804 -177.171,124.1 -291.381,128.629c-131.018,5.195 -248.199,-32 -348.439,-116.582c-81.347,-68.639 -132.166,-157.685 -162.228,-259.176c-23.247,-78.481 -32.55,-158.914 -28.869,-240.233c6.3,-139.186 45.276,-267.835 136.482,-376.11c74.581,-88.538 170.3,-143.489 284.093,-165.016c100.597,-19.031 198.299,-9.517 292.505,33.104c46.518,21.046 80.337,56.147 112.907,93.292c10.066,11.479 9.557,11.925 22.457,15.676c6.95,-5.846 4.898,-13.977 4.971,-21.349c0.24,-24.3 1.206,-48.67 -0.25,-72.884c-1.139,-18.935 6.387,-23.324 24.079,-23.366c70.795,-0.169 141.635,2.534 212.387,-1.649c20.881,-1.235 21.103,11.742 21.091,26.957c-0.151,195.804 -0.064,391.607 0.035,587.411c0.162,318.004 0.386,636.007 0.551,954.011c0.012,24.607 -3.198,28.063 -27.17,27.967c-67.34,-0.272 -134.679,-1.058 -202.018,-1.022c-16.703,0.009 -24.771,-4.067 -24.848,-23.389c-0.506,-127.716 -2.19,-255.428 -3.492,-385.224m-16.557,-813.65c-51.912,-106.617 -133.064,-172.32 -254.596,-180.015c-82.782,-5.242 -154.121,25.742 -210.642,82.742c-115.843,116.827 -144.796,257.995 -92.654,411.977c47.76,141.043 190.519,253.83 364.378,201.73c62.428,-18.707 114.921,-49.899 153.795,-103.663c39.165,-54.168 63.005,-113.578 69.626,-179.954c7.861,-78.805 5.813,-156.418 -29.907,-232.817Z"/><path d="M3170.99,2374.91c27.879,41.586 54.893,81.948 82.107,122.175c5.26,7.775 10.33,15.937 5.522,24.984c-4.473,8.415 -13.744,4.577 -20.902,4.592c-81.927,0.179 -163.857,-0.316 -245.778,0.419c-12.369,0.111 -18.549,-4.322 -24.761,-13.86c-70.054,-107.56 -140.355,-214.959 -210.932,-322.177c-6.655,-10.11 -11.868,-21.955 -22.977,-28.332c-8.675,3.512 -11.734,10.806 -15.462,17.243c-65.439,112.991 -138.644,221.068 -208.983,330.96c-7.542,11.783 -15.845,15.818 -30.399,15.726c-79.136,-0.5 -158.283,0.65 -237.426,1.206c-3.464,0.024 -6.937,-0.09 -10.392,-0.339c-24.248,-1.746 -27.081,-7.328 -13.155,-27.567c94.781,-137.737 189.8,-275.309 284.461,-413.128c25.535,-37.178 49.682,-75.31 75.321,-112.413c9.867,-14.279 8.344,-25.273 -1.245,-39.311c-86.501,-126.636 -169.435,-255.687 -261.003,-378.89c-27.64,-37.189 -49.837,-78.423 -74.562,-117.783c-3.016,-4.802 -6.016,-9.511 -2.396,-15.808c7.114,-5.108 15.746,-2.936 23.818,-2.965c78.462,-0.282 156.93,0.192 235.382,-0.761c15.993,-0.194 25.269,5.243 33.693,18.262c63.714,98.476 127.993,196.587 192.171,294.763c4.832,7.392 10.241,14.408 16.745,23.506c23.91,-29.466 39.32,-61.41 58.583,-90.774c50.617,-77.16 100.962,-154.501 151.114,-231.964c4.806,-7.422 10.679,-9.286 18.867,-10.021c65.164,-5.853 130.464,-2.13 195.689,-3.244c19.437,-0.332 38.89,-0.472 58.323,-0.071c20.512,0.424 23.826,6.567 12.083,23.905c-46.708,68.957 -93.857,137.614 -140.747,206.446c-65.642,96.359 -131.094,192.846 -196.94,289.064c-7.156,10.457 -8.586,18.651 -0.564,29.763c95.462,132.229 182.1,270.438 274.745,406.394Z"/></g></svg>