<svg version="1.1" id="Layer_1" xmlns="http://www.w3.org/2000/svg" xmlns:xlink="http://www.w3.org/1999/xlink" x="0px" y="0px"
	 width="100%" viewBox="0 0 1024 1024" enable-background="new 0 0 1024 1024" xml:space="preserve">
<path fill="#000000" opacity="1.000000" stroke="none" 
	d="
M255.261414,520.053467 
	C250.175995,532.233826 243.430862,542.873169 233.957016,551.575867 
	C231.395477,553.928894 231.414795,555.647339 233.378860,558.283447 
	C238.750534,565.493103 243.901581,572.867249 249.133392,580.180908 
	C249.985718,581.372437 251.218811,582.395874 250.981964,584.075317 
	C250.223511,585.702759 248.786469,585.328186 247.496460,585.329102 
	C238.999969,585.335205 230.485107,584.992432 222.013321,585.450073 
	C216.188492,585.764771 212.746490,583.645569 210.142975,578.530151 
	C206.904388,572.166992 206.626251,572.363464 200.275375,575.444824 
	C185.141586,582.787415 168.949677,584.342285 152.530228,583.189758 
	C132.663940,581.795288 114.256920,575.801453 99.059692,562.375061 
	C77.914040,543.693359 66.687531,520.164673 65.644943,491.847229 
	C65.062820,476.036530 66.309105,460.373016 72.940552,445.918854 
	C86.937462,415.410583 108.595535,393.668610 143.530914,389.349213 
	C176.151764,385.315918 206.819122,390.826019 231.014450,414.650238 
	C260.956024,444.132599 268.592346,479.723572 255.261414,520.053467 
M105.259552,515.237976 
	C120.308464,545.945862 153.285065,556.335999 182.023438,547.553162 
	C187.953247,545.740967 188.281296,544.771912 184.946091,539.675415 
	C177.374023,528.104797 169.721375,516.586792 162.135513,505.025146 
	C161.179504,503.568054 159.489426,502.359741 160.161606,500.046936 
	C161.465271,498.873169 163.181870,499.085541 164.806992,499.050568 
	C171.970657,498.896301 179.164490,499.127625 186.289337,498.528717 
	C191.323883,498.105499 194.168442,499.925201 196.744873,504.105499 
	C201.430344,511.707550 206.723206,518.935242 211.656998,526.164490 
	C212.691132,525.769836 213.112289,525.744995 213.278290,525.526428 
	C225.538101,509.384155 230.159439,491.192749 225.943680,471.444641 
	C221.373779,450.037567 207.862030,435.438934 188.023651,426.759766 
	C155.315842,412.450409 117.192429,426.550964 103.574554,458.727722 
	C95.775673,477.155121 97.116463,496.124603 105.259552,515.237976 
z"/>
<path fill="#000000" opacity="1.000000" stroke="none" 
	d="
M306.616760,451.544281 
	C325.929291,438.289825 346.225952,436.071198 367.654663,444.360962 
	C373.795898,446.736694 378.940063,450.705231 383.407196,455.559174 
	C384.609009,456.865082 385.470398,458.642029 387.794342,459.132019 
	C389.441986,455.531738 388.572418,451.713959 388.566162,448.054077 
	C388.559937,444.432068 389.961487,442.874054 393.558350,442.891296 
	C400.887634,442.926392 408.217926,442.847351 415.547150,442.760773 
	C418.851654,442.721741 420.411224,444.119385 420.338257,447.562347 
	C419.685638,478.357880 419.056061,509.154053 418.508545,539.951599 
	C418.316101,550.776917 418.389984,561.606873 418.303772,572.434326 
	C418.251831,578.956604 416.944641,580.219421 410.320801,580.262024 
	C406.156158,580.288818 401.991211,580.269958 397.826385,580.262573 
	C389.008148,580.247070 388.770752,580.018616 388.667816,571.396545 
	C388.646637,569.623962 388.664734,567.850830 388.664734,566.102234 
	C385.531708,565.707214 384.530701,567.774597 383.170532,569.033569 
	C360.183563,590.310608 322.071381,589.310242 299.852264,567.121155 
	C285.188232,552.476868 277.233917,534.744629 277.204407,514.375366 
	C277.168182,489.369171 284.882050,467.164154 306.616760,451.544281 
M309.674347,502.301483 
	C308.779999,510.779877 308.541595,519.171265 311.439148,527.426880 
	C320.648285,553.664978 351.646545,563.268433 373.299896,546.226135 
	C386.578705,535.774963 391.822418,521.372925 389.453705,505.007111 
	C386.593109,485.242767 372.603607,468.943207 349.883209,468.398132 
	C330.400543,467.930756 314.666504,481.264008 309.674347,502.301483 
z"/>
<path fill="#000000" opacity="1.000000" stroke="none" 
	d="
M731.407104,580.964355 
	C699.970398,570.549194 680.963989,542.393250 681.309570,509.498260 
	C681.530823,488.446014 688.489014,470.703735 703.087891,456.018738 
	C731.311035,427.629181 783.201965,432.875824 805.761780,465.958405 
	C816.228088,481.306732 820.356934,498.150482 819.380066,516.529358 
	C819.131287,521.209900 816.264709,521.310852 812.902405,521.310242 
	C790.081116,521.306091 767.259888,521.319214 744.438599,521.333008 
	C735.776489,521.338196 727.114380,521.346680 718.452393,521.384888 
	C716.651306,521.392883 714.792297,521.174805 712.418030,522.495605 
	C714.779236,530.020264 718.721252,536.543762 724.352539,542.031677 
	C741.630005,558.869263 765.366760,558.325256 781.767578,540.681396 
	C783.756836,538.541382 785.820618,537.566101 788.724121,537.619995 
	C795.884460,537.752869 803.049194,537.622437 810.211853,537.663818 
	C816.536865,537.700317 817.252014,538.729309 814.619324,544.281067 
	C804.398560,565.834717 786.815186,577.732422 763.914185,582.241028 
	C753.201233,584.350159 742.408264,584.018433 731.407104,580.964355 
M742.500000,497.679016 
	C755.993286,497.686218 769.486755,497.661194 782.979797,497.723755 
	C786.283875,497.739075 788.107239,497.179688 786.722839,493.140228 
	C781.439514,477.725250 767.045654,467.321289 750.547729,467.253998 
	C734.423096,467.188232 719.159851,477.938446 714.037048,492.756622 
	C712.778015,496.398315 713.848389,497.706024 717.512024,497.680084 
	C725.507629,497.623474 733.503967,497.671112 742.500000,497.679016 
z"/>
<path fill="#000000" opacity="1.000000" stroke="none" 
	d="
M598.288452,440.919495 
	C608.035095,438.372131 617.402283,438.568085 626.823853,440.470428 
	C646.207458,444.384399 661.760559,462.630066 664.218079,484.305145 
	C666.529480,504.692169 665.113953,525.200134 664.565491,545.661621 
	C664.311157,555.148987 664.218750,564.649048 664.408325,574.136230 
	C664.498596,578.653809 662.780273,579.884521 658.469971,579.616089 
	C652.163086,579.223267 645.804565,579.159119 639.494690,579.479675 
	C634.762268,579.720032 633.601318,577.845581 633.583069,573.405273 
	C633.479126,548.095764 632.845032,522.786316 632.940002,497.478882 
	C632.993164,483.322327 623.167297,470.877106 611.460693,468.491669 
	C595.006165,465.138641 580.012817,472.532745 573.858765,486.786621 
	C571.458313,492.346619 570.277649,498.209839 570.350342,504.264526 
	C570.626099,527.239990 570.984985,550.214478 571.270386,573.189819 
	C571.350159,579.610779 571.284424,579.554138 564.991821,579.455200 
	C558.997131,579.360962 553.000183,579.404236 547.004272,579.387085 
	C539.954102,579.366882 539.949280,579.366943 539.872986,572.065979 
	C539.825989,567.569153 539.802429,563.072205 539.757812,558.575378 
	C539.397583,522.274719 539.021973,485.974121 538.684326,449.673218 
	C538.620361,442.795288 538.689209,442.810364 545.352112,442.607666 
	C551.674988,442.415344 557.998657,442.229431 564.318420,441.957184 
	C568.921631,441.758911 571.602905,443.295990 571.514893,448.472046 
	C571.471741,451.011566 571.549988,453.738159 573.266479,457.063995 
	C580.632263,449.865784 588.274048,443.815338 598.288452,440.919495 
z"/>
<path fill="#000000" opacity="1.000000" stroke="none" 
	d="
M932.135803,476.101837 
	C924.256287,486.664001 916.900879,497.194305 908.168762,506.622528 
	C905.971069,508.995361 906.258667,510.747467 908.124329,513.083191 
	C923.923340,532.863831 939.657959,552.696167 955.360229,572.553833 
	C956.621704,574.149109 959.109497,575.619202 957.800110,578.056030 
	C956.681091,580.138428 954.092407,580.154907 951.985901,580.182739 
	C942.990662,580.301636 933.992554,580.195007 924.996826,580.294983 
	C921.686523,580.331787 919.838745,578.307190 918.118347,576.007690 
	C909.238342,564.138733 900.393005,552.243713 891.512024,540.375427 
	C890.435425,538.936646 889.648193,537.182556 887.727905,536.474792 
	C885.536377,536.650879 884.932922,538.616943 883.910522,540.029053 
	C875.315063,551.900696 866.695984,563.756531 858.248840,575.733459 
	C856.307800,578.485657 854.127197,579.613464 850.762207,579.518677 
	C842.770691,579.293457 834.769592,579.407776 826.772400,579.376526 
	C824.584045,579.367981 822.188538,579.427551 821.130371,577.096619 
	C820.168640,574.977966 821.764404,573.322388 822.927856,571.709473 
	C836.665649,552.664062 850.314575,533.553223 864.229309,514.637878 
	C866.920227,510.979980 866.605652,508.515564 863.974548,505.050781 
	C849.773010,486.348877 835.807312,467.467865 821.755554,448.652130 
	C820.658691,447.183411 819.206238,445.728149 819.934570,443.743530 
	C820.757629,441.500702 822.955627,442.044678 824.694702,442.023834 
	C833.357605,441.919739 842.023193,441.986877 850.684265,441.814850 
	C853.897095,441.751007 855.811096,443.154968 857.645996,445.683502 
	C866.546875,457.949188 875.638550,470.076477 884.661255,482.253784 
	C885.250244,483.048676 885.827698,483.852173 886.165161,484.315155 
	C889.283447,484.158020 890.017273,482.015442 891.139404,480.503448 
	C899.575317,469.136871 908.034546,457.784454 916.241455,446.253143 
	C918.431519,443.175903 920.930603,441.881012 924.582581,441.939850 
	C932.578003,442.068634 940.576965,441.962585 948.573242,442.056946 
	C950.844421,442.083771 953.536865,441.765045 954.646912,444.448883 
	C955.592773,446.735657 953.482605,448.053284 952.323547,449.581604 
	C945.681580,458.339203 939.005432,467.070892 932.135803,476.101837 
z"/>
<path fill="#000000" opacity="1.000000" stroke="none" 
	d="
M525.065979,449.130829 
	C525.135986,456.107819 525.124512,462.602661 525.311707,469.091766 
	C525.394287,471.954987 524.467407,473.182739 521.428345,473.519836 
	C512.058716,474.559021 502.521606,474.649933 493.676849,478.775513 
	C481.375458,484.513458 473.323242,493.345367 473.196625,507.448608 
	C473.002319,529.086670 473.302032,550.729065 473.376404,572.369629 
	C473.401337,579.623352 472.162964,580.791748 464.873505,579.873901 
	C459.222870,579.162415 453.553864,579.229187 447.921753,579.503845 
	C443.393463,579.724670 442.012482,577.652588 441.986816,573.671448 
	C441.939606,566.346802 441.808075,559.022827 441.751526,551.698242 
	C441.489410,517.744141 441.224823,483.789948 441.002106,449.835571 
	C440.960388,443.478180 441.779205,442.722504 448.217499,442.682373 
	C454.710297,442.641876 461.210815,442.853821 467.694031,442.599823 
	C472.118805,442.426453 473.544006,444.230225 473.424133,448.491241 
	C473.286163,453.396118 472.719696,458.429993 474.759888,463.221649 
	C477.452026,463.413910 478.161224,461.179993 479.396301,459.818298 
	C489.614716,448.552582 501.534576,440.728821 517.393433,440.706207 
	C524.933960,440.695465 525.088745,440.860168 525.065979,449.130829 
z"/>
</svg>