<svg version="1.1" id="Layer_1" xmlns="http://www.w3.org/2000/svg" xmlns:xlink="http://www.w3.org/1999/xlink" x="0px" y="0px"
	 width="100%" viewBox="0 0 1024 1024" enable-background="new 0 0 1024 1024" xml:space="preserve">
<path fill="#000000" opacity="1.000000" stroke="none" 
	d="
M797.975342,149.884003 
	C847.677917,173.243423 877.568909,212.089890 889.860535,264.755676 
	C892.533508,276.208466 893.361938,288.050507 893.360718,299.882782 
	C893.346191,443.524414 893.878540,587.168762 893.129944,730.806519 
	C892.738525,805.920227 841.931396,872.739807 762.217041,888.456055 
	C749.470825,890.968994 736.572937,892.350403 723.605957,892.356323 
	C581.963867,892.420898 440.321320,892.573181 298.680237,892.192078 
	C272.075684,892.120483 246.133545,886.971802 222.059555,874.706909 
	C176.778564,851.637695 149.359833,814.522461 136.726730,765.899536 
	C132.855957,751.001465 132.143494,735.636414 132.116394,720.371216 
	C131.915176,607.059448 131.720703,493.746307 132.134430,380.435822 
	C132.236603,352.453247 132.493942,324.460785 132.650406,296.473114 
	C133.069382,221.521164 186.331589,155.647476 259.530243,139.684586 
	C275.005890,136.309708 290.665314,134.652390 306.503510,134.649765 
	C436.980804,134.628174 567.458191,134.691360 697.935181,134.465820 
	C713.758118,134.438477 729.579956,134.187668 745.294922,135.863449 
	C763.388611,137.792892 780.897522,142.422195 797.975342,149.884003 
M845.613770,751.254395 
	C846.558167,745.186218 847.689209,739.155334 847.687561,732.962280 
	C847.648987,587.479309 847.645447,441.996368 847.630676,296.513428 
	C847.629089,281.201263 844.801331,266.401947 838.828186,252.321014 
	C819.713928,207.262070 777.926819,179.683914 729.375122,179.536026 
	C591.557434,179.116211 453.737640,179.381226 315.918701,179.418793 
	C307.771271,179.421005 299.645020,179.461746 291.476593,180.167542 
	C268.417786,182.159943 247.132828,189.065659 228.121170,202.229202 
	C201.981049,220.328461 185.744568,245.033936 180.117752,276.491516 
	C177.169571,292.973724 177.691422,309.699890 177.568100,326.280121 
	C177.268234,366.596588 177.014572,406.920746 177.856247,447.246307 
	C178.461090,476.225067 177.852371,505.221588 177.584381,534.213074 
	C177.014450,595.868164 177.227325,657.532471 177.471008,719.191589 
	C177.521393,731.945801 178.531998,744.735107 181.346817,757.303528 
	C192.835938,808.603577 238.100525,845.307434 290.628052,846.351074 
	C336.911407,847.270630 383.235260,847.741211 429.552887,847.133789 
	C462.864471,846.696899 496.187073,847.026245 529.504395,847.123596 
	C553.826477,847.194702 578.147766,847.545654 602.469788,847.587463 
	C628.790588,847.632690 655.116455,847.239380 681.430420,847.307495 
	C702.085632,847.360962 722.712036,847.710083 743.283081,845.711975 
	C766.676758,843.439697 787.323792,834.205933 805.333313,819.395081 
	C826.681458,801.838745 839.672180,779.044678 845.613770,751.254395 
z"/>
<path fill="#000000" opacity="1.000000" stroke="none" 
	d="
M443.714722,625.000000 
	C443.750488,611.002197 443.807617,597.504456 443.796326,584.006653 
	C443.794861,582.257935 444.541199,579.946838 442.543732,579.012085 
	C440.388031,578.003418 439.348022,580.232544 438.227448,581.548889 
	C419.879303,603.101868 395.706390,611.332825 368.296112,612.419739 
	C336.851776,613.666504 308.728302,604.739868 284.670624,584.440186 
	C265.147461,567.966736 252.950989,546.595703 245.736023,522.237854 
	C240.156815,503.402374 237.924103,484.098572 238.807495,464.581848 
	C240.319458,431.177399 249.673569,400.301575 271.563202,374.315430 
	C289.462524,353.066345 312.435120,339.878235 339.745422,334.711670 
	C363.888763,330.144226 387.337219,332.427490 409.946716,342.656708 
	C421.110962,347.707764 429.227448,356.131958 437.044403,365.046600 
	C439.460205,367.801666 439.337982,367.908813 442.434082,368.808899 
	C444.101898,367.406036 443.609619,365.454590 443.627075,363.685150 
	C443.684631,357.853241 443.916473,352.004517 443.567017,346.193146 
	C443.293701,341.648651 445.099823,340.595398 449.345947,340.585266 
	C466.336914,340.544739 483.338318,341.193298 500.318970,340.189331 
	C505.330322,339.893066 505.383514,343.007507 505.380707,346.659149 
	C505.344391,393.651978 505.365326,440.644836 505.389160,487.637695 
	C505.427887,563.958618 505.481781,640.279541 505.521301,716.600464 
	C505.524353,722.506165 504.753815,723.335632 499.000641,723.312439 
	C482.838989,723.247314 466.677582,723.058533 450.516144,723.067200 
	C446.507599,723.069336 444.571228,722.091187 444.552826,717.453857 
	C444.431183,686.801941 444.027039,656.151184 443.714722,625.000000 
M439.740845,429.724030 
	C427.282074,404.136108 407.805695,388.367249 378.637970,386.520447 
	C358.770355,385.262482 341.648895,392.698608 328.083954,406.378632 
	C300.281433,434.417114 293.332916,468.297272 305.846893,505.253143 
	C317.309326,539.103455 351.571442,566.172241 393.297638,553.668274 
	C408.280243,549.178528 420.878601,541.692566 430.208282,528.789062 
	C439.607880,515.788757 445.329559,501.530396 446.918671,485.600250 
	C448.805389,466.686981 448.313751,448.059784 439.740845,429.724030 
z"/>
<path fill="#000000" opacity="1.000000" stroke="none" 
	d="
M761.037292,569.979248 
	C767.728333,579.960083 774.211792,589.646912 780.743042,599.301453 
	C782.005371,601.167480 783.222351,603.126160 782.068298,605.297424 
	C780.994812,607.317017 778.769714,606.395996 777.051880,606.399719 
	C757.389465,606.442505 737.726074,606.323669 718.065186,606.500244 
	C715.096619,606.526917 713.613403,605.462891 712.122498,603.173767 
	C695.309509,577.359375 678.437195,551.583557 661.498718,525.851318 
	C659.901489,523.424866 658.650391,520.582092 655.984314,519.051697 
	C653.902222,519.894592 653.168274,521.644958 652.273499,523.190002 
	C636.568115,550.307800 618.998962,576.246216 602.117432,602.620361 
	C600.307373,605.448242 598.314697,606.416626 594.821838,606.394531 
	C575.829102,606.274597 556.833801,606.550598 537.839417,606.684021 
	C537.008179,606.689880 536.174561,606.662354 535.345459,606.602600 
	C529.525879,606.183533 528.845947,604.843811 532.188354,599.986572 
	C554.935608,566.929688 577.740173,533.912292 600.458801,500.835754 
	C606.587280,491.913208 612.382568,482.761414 618.536011,473.856628 
	C620.903992,470.429810 620.538452,467.791290 618.237000,464.422058 
	C597.476868,434.029419 577.572632,403.057312 555.596375,373.488556 
	C548.962708,364.563049 543.635437,354.666962 537.701599,345.220581 
	C536.977600,344.067993 536.257568,342.937836 537.126526,341.426605 
	C538.833740,340.200684 540.905518,340.722046 542.842896,340.715088 
	C561.673706,340.647247 580.506104,340.761169 599.334534,340.532471 
	C603.172852,340.485840 605.399109,341.790649 607.420776,344.915222 
	C622.712280,368.549438 638.139221,392.096100 653.541870,415.658325 
	C654.701599,417.432556 655.999695,419.116333 657.560669,421.299835 
	C663.299133,414.227997 666.997559,406.561493 671.620605,399.514160 
	C683.768738,380.995575 695.851440,362.433929 707.888000,343.842712 
	C709.041260,342.061462 710.450989,341.614105 712.416077,341.437592 
	C728.055359,340.032867 743.727417,340.926483 759.381348,340.659058 
	C764.046204,340.579376 768.714966,340.545746 773.378845,340.642151 
	C778.301819,340.743958 779.097229,342.218262 776.278748,346.379364 
	C765.068970,362.928894 753.753113,379.406555 742.499451,395.926392 
	C726.745544,419.052429 711.036987,442.209442 695.233887,465.301788 
	C693.516541,467.811249 693.173218,469.777832 695.098633,472.444824 
	C718.009399,504.179779 738.802673,537.349854 761.037292,569.979248 
z"/>
</svg>